<?xml version="1.0" encoding="UTF-8"?>
<svg width="300px" height="180px" viewBox="0 0 300 180" version="1.1" xmlns="http://www.w3.org/2000/svg" xmlns:xlink="http://www.w3.org/1999/xlink">
    <!-- Generator: Sketch 45.1 (43504) - http://www.bohemiancoding.com/sketch -->
    <title>CustomerProfile</title>
    <desc>Created with Sketch.</desc>
    <defs></defs>
    <g id="Page-1" stroke="none" stroke-width="1" fill="none" fill-rule="evenodd">
        <g id="CustomerProfile2" fill="#03A9F4">
            <g id="CustomerProfile">
                <g id="Cells" transform="translate(132.000000, 24.000000)">
                    <g id="20" opacity="0.2">
                        <rect id="Rectangle" x="0" y="0" width="18" height="6"></rect>
                        <rect id="Rectangle-Copy-2" x="40" y="0" width="18" height="6"></rect>
                        <rect id="Rectangle-Copy-4" x="80" y="0" width="18" height="6"></rect>
                        <rect id="Rectangle-Copy-5" x="100" y="0" width="18" height="6"></rect>
                        <rect id="Rectangle-Copy-7" x="140" y="0" width="18" height="6"></rect>
                        <rect id="Rectangle-Copy-13" x="40" y="10" width="18" height="6"></rect>
                        <rect id="Rectangle-Copy-10" x="100" y="10" width="18" height="6"></rect>
                        <rect id="Rectangle-Copy-8" x="140" y="10" width="18" height="6"></rect>
                        <rect id="Rectangle-Copy-22" x="20" y="20" width="18" height="6"></rect>
                        <rect id="Rectangle-Copy-21" x="40" y="20" width="18" height="6"></rect>
                        <rect id="Rectangle-Copy-19" x="80" y="20" width="18" height="6"></rect>
                        <rect id="Rectangle-Copy-18" x="100" y="20" width="18" height="6"></rect>
                        <rect id="Rectangle-Copy-16" x="140" y="20" width="18" height="6"></rect>
                        <rect id="Rectangle-Copy-30" x="20" y="30" width="18" height="6"></rect>
                        <rect id="Rectangle-Copy-28" x="60" y="30" width="18" height="6"></rect>
                        <rect id="Rectangle-Copy-26" x="100" y="30" width="18" height="6"></rect>
                        <rect id="Rectangle-Copy-25" x="120" y="30" width="18" height="6"></rect>
                        <rect id="Rectangle-Copy-37" x="40" y="40" width="18" height="6"></rect>
                        <rect id="Rectangle-Copy-36" x="60" y="40" width="18" height="6"></rect>
                        <rect id="Rectangle-Copy-33" x="120" y="40" width="18" height="6"></rect>
                        <rect id="Rectangle-Copy-47" x="0" y="50" width="18" height="6"></rect>
                        <rect id="Rectangle-Copy-46" x="20" y="50" width="18" height="6"></rect>
                        <rect id="Rectangle-Copy-44" x="60" y="50" width="18" height="6"></rect>
                        <rect id="Rectangle-Copy-40" x="140" y="50" width="18" height="6"></rect>
                        <rect id="Rectangle-Copy-54" x="20" y="60" width="18" height="6"></rect>
                        <rect id="Rectangle-Copy-52" x="60" y="60" width="18" height="6"></rect>
                        <rect id="Rectangle-Copy-50" x="100" y="60" width="18" height="6"></rect>
                        <rect id="Rectangle-Copy-49" x="120" y="60" width="18" height="6"></rect>
                        <rect id="Rectangle-Copy-61" x="40" y="70" width="18" height="6"></rect>
                        <rect id="Rectangle-Copy-60" x="60" y="70" width="18" height="6"></rect>
                        <rect id="Rectangle-Copy-59" x="80" y="70" width="18" height="6"></rect>
                        <rect id="Rectangle-Copy-71" x="0" y="80" width="18" height="6"></rect>
                        <rect id="Rectangle-Copy-70" x="20" y="80" width="18" height="6"></rect>
                        <rect id="Rectangle-Copy-69" x="40" y="80" width="18" height="6"></rect>
                        <rect id="Rectangle-Copy-68" x="60" y="80" width="18" height="6"></rect>
                        <rect id="Rectangle-Copy-64" x="140" y="80" width="18" height="6"></rect>
                        <rect id="Rectangle-Copy-79" x="0" y="90" width="18" height="6"></rect>
                        <rect id="Rectangle-Copy-77" x="40" y="90" width="18" height="6"></rect>
                        <rect id="Rectangle-Copy-75" x="80" y="90" width="18" height="6"></rect>
                        <rect id="Rectangle-Copy-85" x="40" y="100" width="18" height="6"></rect>
                        <rect id="Rectangle-Copy-82" x="100" y="100" width="18" height="6"></rect>
                        <rect id="Rectangle-Copy-81" x="120" y="100" width="18" height="6"></rect>
                        <rect id="Rectangle-Copy-94" x="20" y="110" width="18" height="6"></rect>
                        <rect id="Rectangle-Copy-93" x="40" y="110" width="18" height="6"></rect>
                        <rect id="Rectangle-Copy-92" x="60" y="110" width="18" height="6"></rect>
                        <rect id="Rectangle-Copy-91" x="80" y="110" width="18" height="6"></rect>
                        <rect id="Rectangle-Copy-88" x="140" y="110" width="18" height="6"></rect>
                        <rect id="Rectangle-Copy-99" x="80" y="120" width="18" height="6"></rect>
                        <rect id="Rectangle-Copy-97" x="120" y="120" width="18" height="6"></rect>
                        <rect id="Rectangle-Copy-110" x="20" y="130" width="18" height="6"></rect>
                        <rect id="Rectangle-Copy-109" x="40" y="130" width="18" height="6"></rect>
                        <rect id="Rectangle-Copy-104" x="140" y="130" width="18" height="6"></rect>
                        <rect id="Rectangle-Copy-118" x="20" y="140" width="18" height="6"></rect>
                        <rect id="Rectangle-Copy-115" x="80" y="140" width="18" height="6"></rect>
                        <rect id="Rectangle-Copy-114" x="100" y="140" width="18" height="6"></rect>
                    </g>
                    <g id="50" opacity="0.5">
                        <rect id="Rectangle-Copy-3" x="60" y="0" width="18" height="6"></rect>
                        <rect id="Rectangle-Copy-6" x="120" y="0" width="18" height="6"></rect>
                        <rect id="Rectangle-Copy-12" x="60" y="10" width="18" height="6"></rect>
                        <rect id="Rectangle-Copy-11" x="80" y="10" width="18" height="6"></rect>
                        <rect id="Rectangle-Copy-23" x="0" y="20" width="18" height="6"></rect>
                        <rect id="Rectangle-Copy-17" x="120" y="20" width="18" height="6"></rect>
                        <rect id="Rectangle-Copy-31" x="0" y="30" width="18" height="6"></rect>
                        <rect id="Rectangle-Copy-39" x="0" y="40" width="18" height="6"></rect>
                        <rect id="Rectangle-Copy-35" x="80" y="40" width="18" height="6"></rect>
                        <rect id="Rectangle-Copy-32" x="140" y="40" width="18" height="6"></rect>
                        <rect id="Rectangle-Copy-43" x="80" y="50" width="18" height="6"></rect>
                        <rect id="Rectangle-Copy-41" x="120" y="50" width="18" height="6"></rect>
                        <rect id="Rectangle-Copy-55" x="0" y="60" width="18" height="6"></rect>
                        <rect id="Rectangle-Copy-63" x="0" y="70" width="18" height="6"></rect>
                        <rect id="Rectangle-Copy-62" x="20" y="70" width="18" height="6"></rect>
                        <rect id="Rectangle-Copy-58" x="100" y="70" width="18" height="6"></rect>
                        <rect id="Rectangle-Copy-66" x="100" y="80" width="18" height="6"></rect>
                        <rect id="Rectangle-Copy-76" x="60" y="90" width="18" height="6"></rect>
                        <rect id="Rectangle-Copy-73" x="120" y="90" width="18" height="6"></rect>
                        <rect id="Rectangle-Copy-72" x="140" y="90" width="18" height="6"></rect>
                        <rect id="Rectangle-Copy-80" x="140" y="100" width="18" height="6"></rect>
                        <rect id="Rectangle-Copy-103" x="0" y="120" width="18" height="6"></rect>
                        <rect id="Rectangle-Copy-100" x="60" y="120" width="18" height="6"></rect>
                        <rect id="Rectangle-Copy-111" x="0" y="130" width="18" height="6"></rect>
                        <rect id="Rectangle-Copy-106" x="100" y="130" width="18" height="6"></rect>
                        <rect id="Rectangle-Copy-119" x="0" y="140" width="18" height="6"></rect>
                        <rect id="Rectangle-Copy-116" x="60" y="140" width="18" height="6"></rect>
                        <rect id="Rectangle-Copy-113" x="120" y="140" width="18" height="6"></rect>
                    </g>
                    <g id="80">
                        <rect id="Rectangle-Copy" x="20" y="0" width="18" height="6"></rect>
                        <rect id="Rectangle-Copy-15" x="0" y="10" width="18" height="6"></rect>
                        <rect id="Rectangle-Copy-14" x="20" y="10" width="18" height="6"></rect>
                        <rect id="Rectangle-Copy-9" x="120" y="10" width="18" height="6"></rect>
                        <rect id="Rectangle-Copy-20" x="60" y="20" width="18" height="6"></rect>
                        <rect id="Rectangle-Copy-29" x="40" y="30" width="18" height="6"></rect>
                        <rect id="Rectangle-Copy-27" x="80" y="30" width="18" height="6"></rect>
                        <rect id="Rectangle-Copy-24" x="140" y="30" width="18" height="6"></rect>
                        <rect id="Rectangle-Copy-38" x="20" y="40" width="18" height="6"></rect>
                        <rect id="Rectangle-Copy-34" x="100" y="40" width="18" height="6"></rect>
                        <rect id="Rectangle-Copy-45" x="40" y="50" width="18" height="6"></rect>
                        <rect id="Rectangle-Copy-42" x="100" y="50" width="18" height="6"></rect>
                        <rect id="Rectangle-Copy-53" x="40" y="60" width="18" height="6"></rect>
                        <rect id="Rectangle-Copy-51" x="80" y="60" width="18" height="6"></rect>
                        <rect id="Rectangle-Copy-48" x="140" y="60" width="18" height="6"></rect>
                        <rect id="Rectangle-Copy-57" x="120" y="70" width="18" height="6"></rect>
                        <rect id="Rectangle-Copy-56" x="140" y="70" width="18" height="6"></rect>
                        <rect id="Rectangle-Copy-67" x="80" y="80" width="18" height="6"></rect>
                        <rect id="Rectangle-Copy-65" x="120" y="80" width="18" height="6"></rect>
                        <rect id="Rectangle-Copy-78" x="20" y="90" width="18" height="6"></rect>
                        <rect id="Rectangle-Copy-74" x="100" y="90" width="18" height="6"></rect>
                        <rect id="Rectangle-Copy-87" x="0" y="100" width="18" height="6"></rect>
                        <rect id="Rectangle-Copy-86" x="20" y="100" width="18" height="6"></rect>
                        <rect id="Rectangle-Copy-84" x="60" y="100" width="18" height="6"></rect>
                        <rect id="Rectangle-Copy-83" x="80" y="100" width="18" height="6"></rect>
                        <rect id="Rectangle-Copy-95" x="0" y="110" width="18" height="6"></rect>
                        <rect id="Rectangle-Copy-90" x="100" y="110" width="18" height="6"></rect>
                        <rect id="Rectangle-Copy-89" x="120" y="110" width="18" height="6"></rect>
                        <rect id="Rectangle-Copy-102" x="20" y="120" width="18" height="6"></rect>
                        <rect id="Rectangle-Copy-101" x="40" y="120" width="18" height="6"></rect>
                        <rect id="Rectangle-Copy-98" x="100" y="120" width="18" height="6"></rect>
                        <rect id="Rectangle-Copy-96" x="140" y="120" width="18" height="6"></rect>
                        <rect id="Rectangle-Copy-108" x="60" y="130" width="18" height="6"></rect>
                        <rect id="Rectangle-Copy-107" x="80" y="130" width="18" height="6"></rect>
                        <rect id="Rectangle-Copy-105" x="120" y="130" width="18" height="6"></rect>
                        <rect id="Rectangle-Copy-117" x="40" y="140" width="18" height="6"></rect>
                        <rect id="Rectangle-Copy-112" x="140" y="140" width="18" height="6"></rect>
                    </g>
                </g>
                <g id="Headers" opacity="0.5" transform="translate(12.000000, 12.000000)">
                    <rect id="Rectangle-3-Copy-8" x="0" y="0" width="18" height="4"></rect>
                    <rect id="Rectangle-3" x="120" y="0" width="18" height="4"></rect>
                    <rect id="Rectangle-3-Copy" x="140" y="0" width="18" height="4"></rect>
                    <rect id="Rectangle-3-Copy-2" x="160" y="0" width="18" height="4"></rect>
                    <rect id="Rectangle-3-Copy-3" x="180" y="0" width="18" height="4"></rect>
                    <rect id="Rectangle-3-Copy-4" x="200" y="0" width="18" height="4"></rect>
                    <rect id="Rectangle-3-Copy-5" x="220" y="0" width="18" height="4"></rect>
                    <rect id="Rectangle-3-Copy-6" x="240" y="0" width="18" height="4"></rect>
                    <rect id="Rectangle-3-Copy-7" x="260" y="0" width="18" height="4"></rect>
                </g>
                <g id="Rows" opacity="0.5" transform="translate(12.000000, 24.000000)">
                    <g id="Group-4">
                        <rect id="Rectangle-3-Copy-9" x="0" y="0" width="36" height="4"></rect>
                        <rect id="Rectangle-3-Copy-15" x="0" y="66" width="36" height="4"></rect>
                        <rect id="Rectangle-3-Copy-16" x="0" y="77" width="36" height="4"></rect>
                    </g>
                    <g id="Group-3" transform="translate(0.000000, 11.000000)">
                        <rect id="Rectangle-3-Copy-10" x="0" y="0" width="20" height="4"></rect>
                        <rect id="Rectangle-3-Copy-20" x="0" y="110" width="20" height="4"></rect>
                    </g>
                    <g id="Group-2" transform="translate(0.000000, 22.000000)">
                        <rect id="Rectangle-3-Copy-11" x="0" y="0" width="42" height="4"></rect>
                        <rect id="Rectangle-3-Copy-13" x="0" y="22" width="42" height="4"></rect>
                        <rect id="Rectangle-3-Copy-17" x="0" y="66" width="42" height="4"></rect>
                        <rect id="Rectangle-3-Copy-18" x="0" y="77" width="42" height="4"></rect>
                        <rect id="Rectangle-3-Copy-21" x="0" y="110" width="42" height="4"></rect>
                    </g>
                    <g id="Group" transform="translate(0.000000, 33.000000)">
                        <rect id="Rectangle-3-Copy-12" x="0" y="0" width="56" height="4"></rect>
                        <rect id="Rectangle-3-Copy-14" x="0" y="22" width="56" height="4"></rect>
                        <rect id="Rectangle-3-Copy-19" x="0" y="77" width="56" height="4"></rect>
                        <rect id="Rectangle-3-Copy-22" x="0" y="110" width="56" height="4"></rect>
                    </g>
                </g>
            </g>
        </g>
    </g>
</svg>
