<?xml version="1.0" encoding="UTF-8"?>
<svg width="260px" height="118px" viewBox="0 0 260 118" version="1.1" xmlns="http://www.w3.org/2000/svg" xmlns:xlink="http://www.w3.org/1999/xlink">
    <!-- Generator: Sketch 44 (41411) - http://www.bohemiancoding.com/sketch -->
    <title>thumb_dimension_reference</title>
    <desc>Created with Sketch.</desc>
    <defs></defs>
    <g id="Page-1" stroke="none" stroke-width="1" fill="none" fill-rule="evenodd">
        <g id="P_01" transform="translate(-53.000000, -232.000000)" fill-rule="nonzero" fill="#03A9F4">
            <g id="1" transform="translate(33.000000, 128.000000)">
                <g id="thumb_dimension_reference" transform="translate(20.000000, 104.000000)">
                    <g id="Layer_1" opacity="0.54">
                        <path d="M0,5.29540301 L63.5448361,5.29540301 L63.5448361,0 L0,0 L0,5.29540301 Z M100.612657,5.29540301 L111.203463,5.29540301 L111.203463,0 L100.612657,0 L100.612657,5.29540301 Z M129.737374,5.29540301 L142.975881,5.29540301 L142.975881,0 L129.737374,0 L129.737374,5.29540301 Z M158.86209,5.29540301 L174.748299,5.29540301 L174.748299,0 L158.86209,0 L158.86209,5.29540301 Z M195.929911,5.29540301 L217.111523,5.29540301 L217.111523,0 L195.929911,0 L195.929911,5.29540301 Z M238.293135,0 L238.293135,5.29540301 L259.474747,5.29540301 L259.474747,0 L238.293135,0 Z" id="Shape"></path>
                    </g>
                    <g id="Layer_2" opacity="0.34" transform="translate(0.000000, 9.708239)">
                        <polygon id="1" opacity="0.6" points="0 0 52.9540301 0 52.9540301 5.29540301 0 5.29540301"></polygon>
                        <polygon id="2" opacity="0.6" points="93.5521198 0 111.203463 0 111.203463 5.29540301 93.5521198 5.29540301"></polygon>
                        <polygon id="3" opacity="0.6" points="121.794269 0 142.975881 0 142.975881 5.29540301 121.794269 5.29540301"></polygon>
                        <polygon id="4" opacity="0.6" points="153.566687 0 174.748299 0 174.748299 5.29540301 153.566687 5.29540301"></polygon>
                        <polygon id="5" opacity="0.6" points="185.339105 0 217.111523 0 217.111523 5.29540301 185.339105 5.29540301"></polygon>
                        <polygon id="6" opacity="0.6" points="227.702329 0 259.474747 0 259.474747 5.29540301 227.702329 5.29540301"></polygon>
                        <polygon id="1-copy" opacity="0.6" points="0 8.82567168 52.9540301 8.82567168 52.9540301 14.1210747 0 14.1210747"></polygon>
                        <polygon id="2-copy" opacity="0.6" points="93.5521198 8.82567168 111.203463 8.82567168 111.203463 14.1210747 93.5521198 14.1210747"></polygon>
                        <polygon id="3-copy" opacity="0.6" points="121.794269 8.82567168 142.975881 8.82567168 142.975881 14.1210747 121.794269 14.1210747"></polygon>
                        <polygon id="4-copy" opacity="0.6" points="153.566687 8.82567168 174.748299 8.82567168 174.748299 14.1210747 153.566687 14.1210747"></polygon>
                        <polygon id="5-copy" opacity="0.6" points="185.339105 8.82567168 217.111523 8.82567168 217.111523 14.1210747 185.339105 14.1210747"></polygon>
                        <polygon id="6-copy" opacity="0.6" points="227.702329 8.82567168 259.474747 8.82567168 259.474747 14.1210747 227.702329 14.1210747"></polygon>
                        <polygon id="1-copy-2" opacity="0.6" points="0 17.6513434 47 17.6513434 47 22.9467464 0 22.9467464"></polygon>
                        <polygon id="2-copy-2" opacity="0.6" points="93.5521198 17.6513434 111.203463 17.6513434 111.203463 22.9467464 93.5521198 22.9467464"></polygon>
                        <polygon id="3-copy-2" opacity="0.6" points="121.794269 17.6513434 142.975881 17.6513434 142.975881 22.9467464 121.794269 22.9467464"></polygon>
                        <polygon id="4-copy-2" opacity="0.6" points="153.566687 17.6513434 174.748299 17.6513434 174.748299 22.9467464 153.566687 22.9467464"></polygon>
                        <polygon id="5-copy-2" opacity="0.6" points="185.339105 17.6513434 217.111523 17.6513434 217.111523 22.9467464 185.339105 22.9467464"></polygon>
                        <polygon id="6-copy-2" opacity="0.6" points="227.702329 17.6513434 259.474747 17.6513434 259.474747 22.9467464 227.702329 22.9467464"></polygon>
                        <polygon id="1-copy-3" opacity="0.6" points="0 26.477015 52.9540301 26.477015 52.9540301 31.7724181 0 31.7724181"></polygon>
                        <polygon id="2-copy-3" opacity="0.6" points="93.5521198 26.477015 111.203463 26.477015 111.203463 31.7724181 93.5521198 31.7724181"></polygon>
                        <polygon id="3-copy-3" opacity="0.6" points="121.794269 26.477015 142.975881 26.477015 142.975881 31.7724181 121.794269 31.7724181"></polygon>
                        <polygon id="4-copy-3" opacity="0.6" points="153.566687 26.477015 174.748299 26.477015 174.748299 31.7724181 153.566687 31.7724181"></polygon>
                        <polygon id="5-copy-3" opacity="0.6" points="185.339105 26.477015 217.111523 26.477015 217.111523 31.7724181 185.339105 31.7724181"></polygon>
                        <polygon id="6-copy-3" opacity="0.6" points="227.702329 26.477015 259.474747 26.477015 259.474747 31.7724181 227.702329 31.7724181"></polygon>
                        <polygon id="1-copy-4" opacity="0.6" points="0 35.3026867 41 35.3026867 41 40.5980897 0 40.5980897"></polygon>
                        <polygon id="2-copy-4" opacity="0.6" points="93.5521198 35.3026867 111.203463 35.3026867 111.203463 40.5980897 93.5521198 40.5980897"></polygon>
                        <polygon id="3-copy-4" opacity="0.6" points="121.794269 35.3026867 142.975881 35.3026867 142.975881 40.5980897 121.794269 40.5980897"></polygon>
                        <polygon id="4-copy-4" opacity="0.6" points="153.566687 35.3026867 174.748299 35.3026867 174.748299 40.5980897 153.566687 40.5980897"></polygon>
                        <polygon id="5-copy-4" opacity="0.6" points="185.339105 35.3026867 217.111523 35.3026867 217.111523 40.5980897 185.339105 40.5980897"></polygon>
                        <polygon id="6-copy-4" opacity="0.6" points="227.702329 35.3026867 259.474747 35.3026867 259.474747 40.5980897 227.702329 40.5980897"></polygon>
                        <polygon id="1-copy-5" opacity="0.6" points="0 44.1283584 47 44.1283584 47 49.4237614 0 49.4237614"></polygon>
                        <polygon id="2-copy-5" opacity="0.6" points="93.5521198 44.1283584 111.203463 44.1283584 111.203463 49.4237614 93.5521198 49.4237614"></polygon>
                        <polygon id="3-copy-5" opacity="0.6" points="121.794269 44.1283584 142.975881 44.1283584 142.975881 49.4237614 121.794269 49.4237614"></polygon>
                        <polygon id="4-copy-5" opacity="0.6" points="153.566687 44.1283584 174.748299 44.1283584 174.748299 49.4237614 153.566687 49.4237614"></polygon>
                        <polygon id="5-copy-5" opacity="0.6" points="185.339105 44.1283584 217.111523 44.1283584 217.111523 49.4237614 185.339105 49.4237614"></polygon>
                        <polygon id="6-copy-5" opacity="0.6" points="227.702329 44.1283584 259.474747 44.1283584 259.474747 49.4237614 227.702329 49.4237614"></polygon>
                        <polygon id="1-copy-6" opacity="0.6" points="0 52.9540301 52.9540301 52.9540301 52.9540301 58.2494331 0 58.2494331"></polygon>
                        <polygon id="2-copy-6" opacity="0.6" points="93.5521198 52.9540301 111.203463 52.9540301 111.203463 58.2494331 93.5521198 58.2494331"></polygon>
                        <polygon id="3-copy-6" opacity="0.6" points="121.794269 52.9540301 142.975881 52.9540301 142.975881 58.2494331 121.794269 58.2494331"></polygon>
                        <polygon id="4-copy-6" opacity="0.6" points="153.566687 52.9540301 174.748299 52.9540301 174.748299 58.2494331 153.566687 58.2494331"></polygon>
                        <polygon id="5-copy-6" opacity="0.6" points="185.339105 52.9540301 217.111523 52.9540301 217.111523 58.2494331 185.339105 58.2494331"></polygon>
                        <polygon id="6-copy-6" opacity="0.6" points="227.702329 52.9540301 259.474747 52.9540301 259.474747 58.2494331 227.702329 58.2494331"></polygon>
                        <polygon id="1-copy-7" opacity="0.6" points="0 62.9540301 47 62.9540301 47 68.2494331 0 68.2494331"></polygon>
                        <polygon id="2-copy-7" opacity="0.6" points="93.5521198 62.9540301 111.203463 62.9540301 111.203463 68.2494331 93.5521198 68.2494331"></polygon>
                        <polygon id="3-copy-7" opacity="0.6" points="121.794269 62.9540301 142.975881 62.9540301 142.975881 68.2494331 121.794269 68.2494331"></polygon>
                        <polygon id="4-copy-7" opacity="0.6" points="153.566687 62.9540301 174.748299 62.9540301 174.748299 68.2494331 153.566687 68.2494331"></polygon>
                        <polygon id="5-copy-7" opacity="0.6" points="185.339105 62.9540301 217.111523 62.9540301 217.111523 68.2494331 185.339105 68.2494331"></polygon>
                        <polygon id="6-copy-7" opacity="0.6" points="227.702329 62.9540301 259.474747 62.9540301 259.474747 68.2494331 227.702329 68.2494331"></polygon>
                        <polygon id="1-copy-8" opacity="0.6" points="0 72.9540301 57 72.9540301 57 78.2494331 0 78.2494331"></polygon>
                        <polygon id="2-copy-8" opacity="0.6" points="93.5521198 72.9540301 111.203463 72.9540301 111.203463 78.2494331 93.5521198 78.2494331"></polygon>
                        <polygon id="3-copy-8" opacity="0.6" points="121.794269 72.9540301 142.975881 72.9540301 142.975881 78.2494331 121.794269 78.2494331"></polygon>
                        <polygon id="4-copy-8" opacity="0.6" points="153.566687 72.9540301 174.748299 72.9540301 174.748299 78.2494331 153.566687 78.2494331"></polygon>
                        <polygon id="5-copy-8" opacity="0.6" points="185.339105 72.9540301 217.111523 72.9540301 217.111523 78.2494331 185.339105 78.2494331"></polygon>
                        <polygon id="6-copy-8" opacity="0.6" points="227.702329 72.9540301 259.474747 72.9540301 259.474747 78.2494331 227.702329 78.2494331"></polygon>
                        <polygon id="1-copy-9" opacity="0.6" points="0 82.9540301 37 82.9540301 37 88.2494331 0 88.2494331"></polygon>
                        <polygon id="2-copy-9" opacity="0.6" points="93.5521198 82.9540301 111.203463 82.9540301 111.203463 88.2494331 93.5521198 88.2494331"></polygon>
                        <polygon id="3-copy-9" opacity="0.6" points="121.794269 82.9540301 142.975881 82.9540301 142.975881 88.2494331 121.794269 88.2494331"></polygon>
                        <polygon id="4-copy-9" opacity="0.6" points="153.566687 82.9540301 174.748299 82.9540301 174.748299 88.2494331 153.566687 88.2494331"></polygon>
                        <polygon id="5-copy-9" opacity="0.6" points="185.339105 82.9540301 217.111523 82.9540301 217.111523 88.2494331 185.339105 88.2494331"></polygon>
                        <polygon id="6-copy-9" opacity="0.6" points="227.702329 82.9540301 259.474747 82.9540301 259.474747 88.2494331 227.702329 88.2494331"></polygon>
                        <polygon id="1-copy-10" opacity="0.6" points="0 92.9540301 42 92.9540301 42 98.2494331 0 98.2494331"></polygon>
                        <polygon id="2-copy-10" opacity="0.6" points="93.5521198 92.9540301 111.203463 92.9540301 111.203463 98.2494331 93.5521198 98.2494331"></polygon>
                        <polygon id="3-copy-10" opacity="0.6" points="121.794269 92.9540301 142.975881 92.9540301 142.975881 98.2494331 121.794269 98.2494331"></polygon>
                        <polygon id="4-copy-10" opacity="0.6" points="153.566687 92.9540301 174.748299 92.9540301 174.748299 98.2494331 153.566687 98.2494331"></polygon>
                        <polygon id="5-copy-10" opacity="0.6" points="185.339105 92.9540301 217.111523 92.9540301 217.111523 98.2494331 185.339105 98.2494331"></polygon>
                        <polygon id="6-copy-10" opacity="0.6" points="227.702329 92.9540301 259.474747 92.9540301 259.474747 98.2494331 227.702329 98.2494331"></polygon>
                        <polygon id="1-copy-11" opacity="0.6" points="0 102.95403 52.9540301 102.95403 52.9540301 108.249433 0 108.249433"></polygon>
                        <polygon id="2-copy-11" opacity="0.6" points="93.5521198 102.95403 111.203463 102.95403 111.203463 108.249433 93.5521198 108.249433"></polygon>
                        <polygon id="3-copy-11" opacity="0.6" points="121.794269 102.95403 142.975881 102.95403 142.975881 108.249433 121.794269 108.249433"></polygon>
                        <polygon id="4-copy-11" opacity="0.6" points="153.566687 102.95403 174.748299 102.95403 174.748299 108.249433 153.566687 108.249433"></polygon>
                        <polygon id="5-copy-11" opacity="0.6" points="185.339105 102.95403 217.111523 102.95403 217.111523 108.249433 185.339105 108.249433"></polygon>
                        <polygon id="6-copy-11" opacity="0.6" points="227.702329 102.95403 259.474747 102.95403 259.474747 108.249433 227.702329 108.249433"></polygon>
                    </g>
                </g>
            </g>
        </g>
    </g>
</svg>