<?xml version="1.0" encoding="UTF-8"?>
<svg width="300px" height="180px" viewBox="0 0 300 180" version="1.1" xmlns="http://www.w3.org/2000/svg" xmlns:xlink="http://www.w3.org/1999/xlink">
    <!-- Generator: Sketch 44.1 (41455) - http://www.bohemiancoding.com/sketch -->
    <title>EffectivenessMatrix</title>
    <desc>Created with Sketch.</desc>
    <defs></defs>
    <g id="Page-1" stroke="none" stroke-width="1" fill="none" fill-rule="evenodd">
        <g id="EffectivenessMatrix" fill="#03A9F4">
            <!--<rect id="Rectangle-2-Copy" fill-opacity="0.08" x="0" y="0" width="300" height="179.820479"></rect>-->
            <g id="Group" transform="translate(12.000000, 12.000000)">
                <rect id="Rectangle-2" fill-opacity="0.8" x="0" y="68" width="136" height="68"></rect>
                <rect id="Rectangle-3" fill-opacity="0.5" x="68" y="0" width="68" height="68"></rect>
                <polygon id="Triangle" fill-opacity="0.3" points="0 7.10542736e-15 0.991333008 1.67192649e-14 68 67.088501 68 68 0 68"></polygon>
                <polygon id="Triangle-Copy" fill-opacity="0.2" transform="translate(34.000000, 34.000000) scale(-1, -1) translate(-34.000000, -34.000000) " points="0 0 68 68 0 68"></polygon>
                <circle id="Oval-3" cx="66" cy="67" r="16"></circle>
            </g>
            <g id="Rows" transform="translate(160.000000, 12.000000)" fill-opacity="0.3">
                <rect id="Rectangle-5" x="0" y="0" width="128" height="12"></rect>
                <rect id="Rectangle-5-Copy" x="0" y="16" width="128" height="12"></rect>
                <rect id="Rectangle-5-Copy-2" x="0" y="32" width="128" height="12"></rect>
                <rect id="Rectangle-5-Copy-3" x="0" y="48" width="128" height="12"></rect>
                <rect id="Rectangle-5-Copy-4" x="0" y="64" width="128" height="12"></rect>
                <rect id="Rectangle-5-Copy-5" x="0" y="80" width="128" height="12"></rect>
                <rect id="Rectangle-5-Copy-6" x="0" y="96" width="128" height="12"></rect>
                <rect id="Rectangle-5-Copy-7" x="0" y="112" width="128" height="12"></rect>
            </g>
        </g>
    </g>
</svg>
