<?xml version="1.0" encoding="UTF-8" standalone="no"?>
<svg
	xmlns="http://www.w3.org/2000/svg"
	xmlns:xlink="http://www.w3.org/1999/xlink"
	viewBox="0 0 100 100"
	width="100"
	height="100"
	preserveAspectRatio="none"
	>

	<g>

		<!-- Section 1 (pink) -->
		<rect fill="#EC3E76" x="50" y="0" width="50" height="50"/>

		<!-- Section 2 (yellow) -->
		<path fill="#FEE94F" d="M0,0 L50,0 L50,50 L0,0 z"/>

		<!-- Section 3 (green) -->
		<path fill="#32E8B7" d="M0,0 L50,50 L0,50 L0,0 z"/>

		<!-- Section 4 (blue) -->
		<rect fill="#4054B2" x="0" y="50" width="100" height="50"/>

		<!-- Horizontal axis/arrows -->
		<path fill="#FFFFFF" d="M0,50 L2,51.5 L2.3,51.1 L1.1167,50.25 L98.8833,50.25 L97.7,51.1 L98,51.5 L100,50 L98,48.5 L97.7,48.9 L98.8833,49.75 L1.1167,49.75 L2.3,48.9 L2,48.5 L0,50 z"/>

		<!-- Vertical axis/arrows -->
		<path fill="#FFFFFF" d="M50,0 L51.5,2 L51.1,2.3 L50.25,1.1167 L50.25,98.8833 L51.1,97.7 L51.5,98 L50,100 L48.5,98 L48.9,97.7 L49.75,98.8833 L49.75,1.1167 L48.9,2.3 L48.5,2 L50,0 z"/>

		<!-- Section 5 (cyan) -->
		<circle fill="#1FBAF4" cx="50" cy="50" r="10"/>

	</g>

</svg>
