<?xml version="1.0" encoding="UTF-8"?>
<svg width="300px" height="180px" viewBox="0 0 300 180" version="1.1" xmlns="http://www.w3.org/2000/svg" xmlns:xlink="http://www.w3.org/1999/xlink">
  <!-- Generator: Sketch 44.1 (41455) - http://www.bohemiancoding.com/sketch -->
  <title>Landscape</title>
  <desc>Created with Sketch.</desc>
  <defs></defs>
  <g stroke="none" stroke-width="1" fill="none" fill-rule="evenodd">
    <g>
      <g opacity="0.8" transform="translate(10.000000, 30.000000)" fill="#03A9F4">
        <circle cx="4" cy="13" r="4"></circle>
        <circle cx="40" cy="13" r="4"></circle>
        <circle cx="72" cy="13" r="4"></circle>
        <circle cx="106" cy="4" r="4"></circle>
        <circle cx="140" cy="4" r="4"></circle>
        <circle cx="207" cy="12" r="4"></circle>
        <circle cx="241" cy="12" r="4"></circle>
        <circle cx="275" cy="26" r="4"></circle>
        <circle cx="173" cy="12" r="4"></circle>
      </g>
      <g opacity="0.8" transform="translate(14.000000, 33.000000)" stroke="#03A9F4" stroke-width="2" stroke-linecap="square">
        <path d="M0,10 L36,10"></path>
        <path d="M32,10 L68,10"></path>
        <path d="M101,1 L137,1"></path>
        <path d="M136,1 L168,9"></path>
        <path d="M168,9 L204,9"></path>
        <path d="M202,9 L238,9"></path>
        <path d="M237,9 L271,22"></path>
        <path d="M68,10 L103,1"></path>
      </g>
      <g opacity="0.5" transform="translate(11.000000, 41.000000)" fill="#03A9F4">
        <circle cx="4" cy="16" r="4"></circle>
        <circle cx="39" cy="16" r="4"></circle>
        <circle cx="71" cy="13" r="4"></circle>
        <circle cx="105" cy="4" r="4"></circle>
        <circle cx="139" cy="6" r="4"></circle>
        <circle cx="172" cy="15" r="4"></circle>
        <circle cx="206" cy="10" r="4"></circle>
        <circle cx="240" cy="10" r="4"></circle>
        <circle cx="274" cy="5" r="4"></circle>
      </g>
      <g opacity="0.5" transform="translate(14.000000, 45.000000)" stroke="#03A9F4" stroke-width="2" stroke-linecap="square">
        <path d="M0,12 L36,12"></path>
        <path d="M203,5 L239,5"></path>
        <path d="M238,5 L271,1"></path>
        <path d="M170,11 L203,5"></path>
        <path d="M137,3 L169,11"></path>
        <path d="M104,0 L136,2"></path>
        <path d="M69,9 L104,0"></path>
        <path d="M35,12 L68,9"></path>
      </g>
      <rect fill-opacity="1.0" fill="#03A9F4" x="12"  y="72" width="136" height="12" rx="6"></rect>
      <rect fill-opacity="0.2" fill="#03A9F4" x="178" y="72" width="84"  height="12" rx="6"></rect>
      <rect fill-opacity="0.3" fill="#03A9F4" x="12"  y="88" width="136" height="12" rx="6"></rect>
      <rect fill-opacity="0.5" fill="#03A9F4" x="12"  y="104" width="270" height="12" rx="6"></rect>
      <rect fill-opacity="0.8" fill="#03A9F4" x="72"  y="120" width="76"  height="12" rx="6"></rect>
    </g>
  </g>
</svg>
