<?xml version="1.0" encoding="UTF-8"?>
<svg width="260px" height="110px" viewBox="0 0 260 110" version="1.1" xmlns="http://www.w3.org/2000/svg" xmlns:xlink="http://www.w3.org/1999/xlink">
    <!-- Generator: Sketch 44 (41411) - http://www.bohemiancoding.com/sketch -->
    <title>LoyaltyDynamics</title>
    <desc>Created with Sketch.</desc>
    <defs></defs>
    <g id="Page-1" stroke="none" stroke-width="1" fill="none" fill-rule="evenodd" opacity="0.54">
        <g id="P_01" transform="translate(-727.000000, -236.000000)" fill="#03A9F4">
            <g id="3" transform="translate(707.000000, 128.000000)">
                <g id="LoyaltyDynamics" transform="translate(20.000000, 108.000000)">
                    <g id="Layer_2" transform="translate(115.352113, 5.492958)" fill-rule="nonzero">
                        <g id="34" fill-opacity="0.34">
                            <polygon id="2" points="0 0 16.1596805 0 16.1596805 4.84790416 0 4.84790416"></polygon>
                            <polygon id="2-copy" points="0 8.07984027 16.1596805 8.07984027 16.1596805 12.9277444 0 12.9277444"></polygon>
                            <polygon id="2-copy-2" points="0 16.1596805 16.1596805 16.1596805 16.1596805 21.0075847 0 21.0075847"></polygon>
                            <polygon id="2-copy-3" points="0 24.2395208 16.1596805 24.2395208 16.1596805 29.087425 0 29.087425"></polygon>
                            <polygon id="2-copy-4" points="0 32.3193611 16.1596805 32.3193611 16.1596805 37.1672653 0 37.1672653"></polygon>
                            <polygon id="2-copy-6" points="0 48.4790416 16.1596805 48.4790416 16.1596805 53.3269458 0 53.3269458"></polygon>
                            <polygon id="2-copy-7" points="0 57.6339712 16.1596805 57.6339712 16.1596805 62.4818754 0 62.4818754"></polygon>
                            <polygon id="2-copy-11" points="0 94.2536895 16.1596805 94.2536895 16.1596805 99.1015937 0 99.1015937"></polygon>
                            <polygon id="2-copy-23" points="18.3098592 0 34.4695397 0 34.4695397 4.84790416 18.3098592 4.84790416"></polygon>
                            <polygon id="2-copy-22" points="18.3098592 8.07984027 34.4695397 8.07984027 34.4695397 12.9277444 18.3098592 12.9277444"></polygon>
                            <polygon id="2-copy-20" points="18.3098592 24.2395208 34.4695397 24.2395208 34.4695397 29.087425 18.3098592 29.087425"></polygon>
                            <polygon id="2-copy-19" points="18.3098592 32.3193611 34.4695397 32.3193611 34.4695397 37.1672653 18.3098592 37.1672653"></polygon>
                            <polygon id="2-copy-18" points="18.3098592 40.3992014 34.4695397 40.3992014 34.4695397 45.2471055 18.3098592 45.2471055"></polygon>
                            <polygon id="2-copy-16" points="18.3098592 57.6339712 34.4695397 57.6339712 34.4695397 62.4818754 18.3098592 62.4818754"></polygon>
                            <polygon id="2-copy-15" points="18.3098592 66.7889008 34.4695397 66.7889008 34.4695397 71.636805 18.3098592 71.636805"></polygon>
                            <polygon id="2-copy-14" points="18.3098592 75.9438304 34.4695397 75.9438304 34.4695397 80.7917345 18.3098592 80.7917345"></polygon>
                            <polygon id="2-copy-13" points="18.3098592 85.0987599 34.4695397 85.0987599 34.4695397 89.9466641 18.3098592 89.9466641"></polygon>
                            <polygon id="2-copy-12" points="18.3098592 94.2536895 34.4695397 94.2536895 34.4695397 99.1015937 18.3098592 99.1015937"></polygon>
                            <polygon id="2-copy-35" points="36.6197183 0 52.7793989 0 52.7793989 4.84790416 36.6197183 4.84790416"></polygon>
                            <polygon id="2-copy-33" points="36.6197183 16.1596805 52.7793989 16.1596805 52.7793989 21.0075847 36.6197183 21.0075847"></polygon>
                            <polygon id="2-copy-31" points="36.6197183 32.3193611 52.7793989 32.3193611 52.7793989 37.1672653 36.6197183 37.1672653"></polygon>
                            <polygon id="2-copy-30" points="36.6197183 40.3992014 52.7793989 40.3992014 52.7793989 45.2471055 36.6197183 45.2471055"></polygon>
                            <polygon id="2-copy-29" points="36.6197183 48.4790416 52.7793989 48.4790416 52.7793989 53.3269458 36.6197183 53.3269458"></polygon>
                            <polygon id="2-copy-28" points="36.6197183 57.6339712 52.7793989 57.6339712 52.7793989 62.4818754 36.6197183 62.4818754"></polygon>
                            <polygon id="2-copy-27" points="36.6197183 66.7889008 52.7793989 66.7889008 52.7793989 71.636805 36.6197183 71.636805"></polygon>
                            <polygon id="2-copy-25" points="36.6197183 85.0987599 52.7793989 85.0987599 52.7793989 89.9466641 36.6197183 89.9466641"></polygon>
                            <polygon id="2-copy-24" points="36.6197183 94.2536895 52.7793989 94.2536895 52.7793989 99.1015937 36.6197183 99.1015937"></polygon>
                            <polygon id="2-copy-47" points="54.9295775 0 71.089258 0 71.089258 4.84790416 54.9295775 4.84790416"></polygon>
                            <polygon id="2-copy-45" points="54.9295775 16.1596805 71.089258 16.1596805 71.089258 21.0075847 54.9295775 21.0075847"></polygon>
                            <polygon id="2-copy-43" points="54.9295775 32.3193611 71.089258 32.3193611 71.089258 37.1672653 54.9295775 37.1672653"></polygon>
                            <polygon id="2-copy-42" points="54.9295775 40.3992014 71.089258 40.3992014 71.089258 45.2471055 54.9295775 45.2471055"></polygon>
                            <polygon id="2-copy-40" points="54.9295775 57.6339712 71.089258 57.6339712 71.089258 62.4818754 54.9295775 62.4818754"></polygon>
                            <polygon id="2-copy-39" points="54.9295775 66.7889008 71.089258 66.7889008 71.089258 71.636805 54.9295775 71.636805"></polygon>
                            <polygon id="2-copy-38" points="54.9295775 75.9438304 71.089258 75.9438304 71.089258 80.7917345 54.9295775 80.7917345"></polygon>
                            <polygon id="2-copy-37" points="54.9295775 85.0987599 71.089258 85.0987599 71.089258 89.9466641 54.9295775 89.9466641"></polygon>
                            <polygon id="2-copy-36" points="54.9295775 94.2536895 71.089258 94.2536895 71.089258 99.1015937 54.9295775 99.1015937"></polygon>
                            <polygon id="2-copy-59" points="73.2394366 0 89.3991172 0 89.3991172 4.84790416 73.2394366 4.84790416"></polygon>
                            <polygon id="2-copy-58" points="73.2394366 8.07984027 89.3991172 8.07984027 89.3991172 12.9277444 73.2394366 12.9277444"></polygon>
                            <polygon id="2-copy-56" points="73.2394366 24.2395208 89.3991172 24.2395208 89.3991172 29.087425 73.2394366 29.087425"></polygon>
                            <polygon id="2-copy-54" points="73.2394366 40.3992014 89.3991172 40.3992014 89.3991172 45.2471055 73.2394366 45.2471055"></polygon>
                            <polygon id="2-copy-53" points="73.2394366 48.4790416 89.3991172 48.4790416 89.3991172 53.3269458 73.2394366 53.3269458"></polygon>
                            <polygon id="2-copy-51" points="73.2394366 66.7889008 89.3991172 66.7889008 89.3991172 71.636805 73.2394366 71.636805"></polygon>
                            <polygon id="2-copy-50" points="73.2394366 75.9438304 89.3991172 75.9438304 89.3991172 80.7917345 73.2394366 80.7917345"></polygon>
                            <polygon id="2-copy-71" points="91.5492958 0 107.708976 0 107.708976 4.84790416 91.5492958 4.84790416"></polygon>
                            <polygon id="2-copy-67" points="91.5492958 32.3193611 107.708976 32.3193611 107.708976 37.1672653 91.5492958 37.1672653"></polygon>
                            <polygon id="2-copy-66" points="91.5492958 40.3992014 107.708976 40.3992014 107.708976 45.2471055 91.5492958 45.2471055"></polygon>
                            <polygon id="2-copy-65" points="91.5492958 48.4790416 107.708976 48.4790416 107.708976 53.3269458 91.5492958 53.3269458"></polygon>
                            <polygon id="2-copy-63" points="91.5492958 66.7889008 107.708976 66.7889008 107.708976 71.636805 91.5492958 71.636805"></polygon>
                            <polygon id="2-copy-61" points="91.5492958 85.0987599 107.708976 85.0987599 107.708976 89.9466641 91.5492958 89.9466641"></polygon>
                            <polygon id="2-copy-60" points="91.5492958 94.2536895 107.708976 94.2536895 107.708976 99.1015937 91.5492958 99.1015937"></polygon>
                            <polygon id="2-copy-82" points="109.859155 8.07984027 126.018835 8.07984027 126.018835 12.9277444 109.859155 12.9277444"></polygon>
                            <polygon id="2-copy-80" points="109.859155 24.2395208 126.018835 24.2395208 126.018835 29.087425 109.859155 29.087425"></polygon>
                            <polygon id="2-copy-79" points="109.859155 32.3193611 126.018835 32.3193611 126.018835 37.1672653 109.859155 37.1672653"></polygon>
                            <polygon id="2-copy-77" points="109.859155 48.4790416 126.018835 48.4790416 126.018835 53.3269458 109.859155 53.3269458"></polygon>
                            <polygon id="2-copy-74" points="109.859155 75.9438304 126.018835 75.9438304 126.018835 80.7917345 109.859155 80.7917345"></polygon>
                            <polygon id="2-copy-73" points="109.859155 85.0987599 126.018835 85.0987599 126.018835 89.9466641 109.859155 89.9466641"></polygon>
                            <polygon id="2-copy-95" points="128.169014 0 144.328695 0 144.328695 4.84790416 128.169014 4.84790416"></polygon>
                            <polygon id="2-copy-93" points="128.169014 16.1596805 144.328695 16.1596805 144.328695 21.0075847 128.169014 21.0075847"></polygon>
                            <polygon id="2-copy-89" points="128.169014 48.4790416 144.328695 48.4790416 144.328695 53.3269458 128.169014 53.3269458"></polygon>
                            <polygon id="2-copy-88" points="128.169014 57.6339712 144.328695 57.6339712 144.328695 62.4818754 128.169014 62.4818754"></polygon>
                            <polygon id="2-copy-85" points="128.169014 85.0987599 144.328695 85.0987599 144.328695 89.9466641 128.169014 89.9466641"></polygon>
                        </g>
                        <g id="54" transform="translate(0.000000, 7.323944)" fill-opacity="0.54">
                            <polygon id="2-copy-5" points="0 33.0752577 16.1596805 33.0752577 16.1596805 37.9231619 0 37.9231619"></polygon>
                            <polygon id="2-copy-10" points="0 77.7748163 16.1596805 77.7748163 16.1596805 82.6227204 0 82.6227204"></polygon>
                            <polygon id="2-copy-21" points="18.3098592 8.83573688 34.4695397 8.83573688 34.4695397 13.683641 18.3098592 13.683641"></polygon>
                            <polygon id="2-copy-26" points="36.6197183 68.6198867 52.7793989 68.6198867 52.7793989 73.4677909 36.6197183 73.4677909"></polygon>
                            <polygon id="2-copy-44" points="54.9295775 16.9155772 71.089258 16.9155772 71.089258 21.7634813 54.9295775 21.7634813"></polygon>
                            <polygon id="2-copy-57" points="73.2394366 8.83573688 89.3991172 8.83573688 89.3991172 13.683641 73.2394366 13.683641"></polygon>
                            <polygon id="2-copy-70" points="91.5492958 0.755896611 107.708976 0.755896611 107.708976 5.60380077 91.5492958 5.60380077"></polygon>
                            <polygon id="2-copy-69" points="91.5492958 8.83573688 107.708976 8.83573688 107.708976 13.683641 91.5492958 13.683641"></polygon>
                            <polygon id="2-copy-64" points="91.5492958 50.3100276 107.708976 50.3100276 107.708976 55.1579317 91.5492958 55.1579317"></polygon>
                            <polygon id="2-copy-78" points="109.859155 33.0752577 126.018835 33.0752577 126.018835 37.9231619 109.859155 37.9231619"></polygon>
                            <polygon id="2-copy-92" points="128.169014 16.9155772 144.328695 16.9155772 144.328695 21.7634813 128.169014 21.7634813"></polygon>
                            <polygon id="2-copy-90" points="128.169014 33.0752577 144.328695 33.0752577 144.328695 37.9231619 128.169014 37.9231619"></polygon>
                        </g>
                        <g id="87" fill-opacity="0.87">
                            <polygon id="2-copy-8" points="0 66.7889008 16.1596805 66.7889008 16.1596805 71.636805 0 71.636805"></polygon>
                            <polygon id="2-copy-9" points="0 75.9438304 16.1596805 75.9438304 16.1596805 80.7917345 0 80.7917345"></polygon>
                            <polygon id="2-copy-17" points="18.3098592 48.4790416 34.4695397 48.4790416 34.4695397 53.3269458 18.3098592 53.3269458"></polygon>
                            <polygon id="2-copy-34" points="36.6197183 8.07984027 52.7793989 8.07984027 52.7793989 12.9277444 36.6197183 12.9277444"></polygon>
                            <polygon id="2-copy-32" points="36.6197183 24.2395208 52.7793989 24.2395208 52.7793989 29.087425 36.6197183 29.087425"></polygon>
                            <polygon id="2-copy-46" points="54.9295775 8.07984027 71.089258 8.07984027 71.089258 12.9277444 54.9295775 12.9277444"></polygon>
                            <polygon id="2-copy-41" points="54.9295775 48.4790416 71.089258 48.4790416 71.089258 53.3269458 54.9295775 53.3269458"></polygon>
                            <polygon id="2-copy-55" points="73.2394366 32.3193611 89.3991172 32.3193611 89.3991172 37.1672653 73.2394366 37.1672653"></polygon>
                            <polygon id="2-copy-52" points="73.2394366 57.6339712 89.3991172 57.6339712 89.3991172 62.4818754 73.2394366 62.4818754"></polygon>
                            <polygon id="2-copy-49" points="73.2394366 85.0987599 89.3991172 85.0987599 89.3991172 89.9466641 73.2394366 89.9466641"></polygon>
                            <polygon id="2-copy-48" points="73.2394366 94.2536895 89.3991172 94.2536895 89.3991172 99.1015937 73.2394366 99.1015937"></polygon>
                            <polygon id="2-copy-68" points="91.5492958 24.2395208 107.708976 24.2395208 107.708976 29.087425 91.5492958 29.087425"></polygon>
                            <polygon id="2-copy-62" points="91.5492958 75.9438304 107.708976 75.9438304 107.708976 80.7917345 91.5492958 80.7917345"></polygon>
                            <polygon id="2-copy-83" points="109.859155 0 126.018835 0 126.018835 4.84790416 109.859155 4.84790416"></polygon>
                            <polygon id="2-copy-81" points="109.859155 16.1596805 126.018835 16.1596805 126.018835 21.0075847 109.859155 21.0075847"></polygon>
                            <polygon id="2-copy-76" points="109.859155 57.6339712 126.018835 57.6339712 126.018835 62.4818754 109.859155 62.4818754"></polygon>
                            <polygon id="2-copy-75" points="109.859155 66.7889008 126.018835 66.7889008 126.018835 71.636805 109.859155 71.636805"></polygon>
                            <polygon id="2-copy-72" points="109.859155 94.2536895 126.018835 94.2536895 126.018835 99.1015937 109.859155 99.1015937"></polygon>
                            <polygon id="2-copy-94" points="128.169014 8.07984027 144.328695 8.07984027 144.328695 12.9277444 128.169014 12.9277444"></polygon>
                            <polygon id="2-copy-91" points="128.169014 32.3193611 144.328695 32.3193611 144.328695 37.1672653 128.169014 37.1672653"></polygon>
                            <polygon id="2-copy-87" points="128.169014 66.7889008 144.328695 66.7889008 144.328695 71.636805 128.169014 71.636805"></polygon>
                            <polygon id="2-copy-86" points="128.169014 75.9438304 144.328695 75.9438304 144.328695 80.7917345 128.169014 80.7917345"></polygon>
                            <polygon id="2-copy-84" points="128.169014 94.2536895 144.328695 94.2536895 144.328695 99.1015937 128.169014 99.1015937"></polygon>
                        </g>
                    </g>
                    <polygon id="Bottom" fill-opacity="0.34" transform="translate(54.929577, 54.929577) scale(-1, -1) translate(-54.929577, -54.929577) " points="0 0 109.859155 0 52.1830986 57.6760563 0 109.859155"></polygon>
                    <polygon id="Top" fill-opacity="0.54" points="0 0 109.859155 0 52.1830986 57.6760563 0 109.859155"></polygon>
                    <polygon id="Corner" fill-opacity="0.87" points="0 54.9295775 54.9295775 109.859155 0 109.859155"></polygon>
                </g>
            </g>
        </g>
    </g>
</svg>