<?xml version="1.0" encoding="UTF-8" standalone="no"?>
<svg width="100%" height="100%" viewBox="0 0 318 74" version="1.1" xmlns="http://www.w3.org/2000/svg" xmlns:xlink="http://www.w3.org/1999/xlink" fit="" preserveAspectRatio="xMidYMid meet" focusable="false">
  <g id="aip-logo" fill-rule="evenodd">
    <g id="aip">
      <g id="Group" transform="translate(0.000000, 1.000000)">
        <path d="M15,19 L18,19 L33,53 L29,53 L25,44 L8,44 L4,53 L0,53 L15,19 L15,19 L15,19 Z M24,41 L17,23 L9,41 L24,41 L24,41 L24,41 Z" id="Shape"></path>
        <path d="M39,19 L43,19 L43,23 L39,23 L39,19 L39,19 L39,19 Z M39,28 L43,28 L43,53 L39,53 L39,28 L39,28 L39,28 Z" id="Shape"></path>
        <path d="M52,29 L56,29 L56,33 C57.2398264,30.2756793 59.4080304,28.051341 64,28 C66.8738666,27.9137147 69.9838469,29.818246 71,33 C73.1434842,29.8098188 76.430471,27.9448585 80,28 C85.5770483,28.0012433 89,31.7786106 89,38 L89,53 L85,53 L85,39 C85.3662507,34.0029488 83.007325,31.3577898 79,31 C75.3583831,31.3577898 72.2967987,34.0931247 72,39 L72,53 L69,53 L69,39 C68.7132393,34.0530465 66.3041237,31.3577898 62,31 C58.5748779,31.3577898 55.6437873,34.5740627 56,39 L56,53 L52,53 L52,29 L52,29 L52,29 Z" id="Shape"></path>
        <path d="M96,19 L100,19 L100,23 L96,23 L96,19 L96,19 L96,19 Z M96,28 L100,28 L100,53 L96,53 L96,28 L96,28 L96,28 Z" id="Shape"></path>
        <path d="M107,45 C107,40.2667227 111.156762,37.5375001 117,38 C119.666015,37.5025529 122.123277,37.8345942 124,39 L124,38 C124.491811,33.5077093 121.907347,31.2809789 117,31 C114.910382,31.2925962 112.430186,31.8789008 110,33 L109,30 C111.809538,28.6977548 114.77934,27.9997126 118,28 C121.160505,28.0000001 123.794104,28.9261623 126,31 C127.213851,32.3746385 128,34.6407801 128,38 L128.125,53 L124.25,53 L124,49 C122.454454,51.5670614 119.278142,53.0825361 116,53 C111.431914,52.9965265 107,50.4348012 107,46 L107,45 Z M125,43 L125,41 C122.72645,40.3310974 120.368679,39.9891526 118,40 C113.553521,40.0002622 111,42.0306658 111,45 L111,45 C111,48.1827888 113.780282,50 117,50 C121.430986,49.9695439 125,47.2488031 125,43 L125,43 L125,43 L125,43 Z" id="Shape"></path>
        <polygon id="Shape" points="178 7 182 7 182 32 178 32"></polygon>
        <path d="M187,13 L191,13 L191,16 C192.619451,14.216678 194.861694,12.9836333 197,13 C201.533573,13.0001641 204,15.8245994 204,20 L204,32 L200,32 L200,21 C199.668465,18.5088145 198.200839,16.8562194 196,17 C192.982614,16.8562194 191.331535,18.5889403 191,21 L191,32 L187,32 L187,13 L187,13 L187,13 Z" id="Shape"></path>
        <path d="M207,29 L209,26 C210.69101,27.7982288 212.852644,28.590555 215,29 C216.966102,28.6900676 218.033898,27.9193968 218,27 L218,27 C218.033898,25.2220489 216,24.7280291 214,24 C211.037288,23.2953718 207.935593,22.1887676 208,19 L208,19 C207.935593,15.124285 210.894915,13 215,13 C217.112381,13.0447583 219.513722,13.7676352 222,15 L220,18 C218.275949,17.0235297 216.43864,16.4205546 215,16 C212.857627,16.300052 211.891525,17.0707228 212,18 L212,18 C211.891525,19.5309412 213.925424,20.0941238 216,21 C218.888136,21.625585 222,22.8408736 222,26 L222,26 C222,30.0832033 218.949153,32 215,32 C212.100925,31.9724745 209.288453,31.017655 207,29 L207,29 L207,29 L207,29 Z" id="Shape"></path>
        <path d="M225,6 L230,6 L230,10 L225,10 L225,6 L225,6 L225,6 Z M225,13 L230,13 L230,32 L225,32 L225,13 L225,13 L225,13 Z" id="Shape"></path>
        <path d="M235,36 L236,32 C238.424291,33.7842356 240.694636,34.4868627 243,35 C246.771694,34.5005012 248.821391,32.477965 249,29 L249,27 C247.374002,29.4411815 244.943556,30.7411895 242,31 C240.086617,30.7354192 237.906794,29.8080232 236,28 C234.748943,26.4796635 233.910026,24.2253205 234,22 L234,22 C233.90755,19.5198735 234.744365,17.2599668 236,16 C237.900924,13.9176721 240.082081,12.9820249 242,13 C244.878323,12.9616744 247.268611,14.1522122 249,16 L249,13 L253,13 L253,28 C253,31.5678238 252.197945,33.9139657 251,35 C249.148154,37.0286714 246.435029,37.9994887 243,38 C240.239174,38.0229889 237.399705,37.2359213 235,36 L235,36 L235,36 L235,36 Z M249,22 L249,22 C248.979411,20.6011375 248.373028,19.3020318 247,18 C246.266563,17.4320095 244.856759,16.941239 243,17 C241.984382,16.9337508 240.587769,17.4273211 240,18 C238.532869,19.3104114 237.967823,20.6144886 238,22 L238,22 C237.986101,23.3815767 238.556891,24.6753606 240,26 C240.603425,26.550786 241.98933,27.0500975 243,27 C244.855005,27.0599968 246.263232,26.5705356 247,26 C248.369072,24.7047276 248.976657,23.4081463 249,22 L249,22 L249,22 L249,22 Z" id="Shape"></path>
        <path d="M257,6 L261,6 L261,16 C262.619451,14.0582857 264.861694,12.8142586 267,13 C271.533573,12.8309366 274,15.6805286 274,20 L274,32 L270,32 L270,21 C269.668465,18.3886514 268.200839,16.721337 266,17 C262.982614,16.721337 261.331535,18.4694909 261,21 L261,32 L257,32 L257,6 L257,6 L257,6 Z" id="Shape"></path>
        <path d="M278,26 L278,17 L276,17 L276,13 L278,13 L278,8 L283,8 L283,13 L288,13 L288,17 L283,17 L283,26 C282.708895,26.4761863 282.916621,27.1259385 283,28 C283.853467,28.0463856 284.524634,28.2601411 285,28 C286.132301,28.1641931 287.065556,27.9492645 288,28 L288,31 C286.706069,31.678832 285.335396,32.0229001 284,32 C280.748276,31.8993608 278.431034,30.5368088 278,26 L278,26 L278,26 L278,26 Z" id="Shape"></path>
        <path d="M290,29 L292,26 C293.69101,27.7982288 295.852644,28.590555 298,29 C299.966102,28.6900676 301.033898,27.9193968 301,27 L301,27 C301.033898,25.2220489 299,24.7280291 297,24 C294.037288,23.2953718 290.935593,22.1887676 291,19 L291,19 C290.935593,15.124285 293.894915,13 298,13 C300.112381,13.0447583 302.513722,13.7676352 305,15 L303,18 C301.275949,17.0235297 299.43864,16.4205546 298,16 C295.857627,16.300052 294.891525,17.0707228 295,18 L295,18 C294.891525,19.5309412 296.925424,20.0941238 299,21 C301.888136,21.625585 305,22.8408736 305,26 L305,26 C305,30.0832033 301.949153,32 298,32 C295.100925,31.9724745 292.288453,31.017655 290,29 L290,29 L290,29 L290,29 Z" id="Shape"></path>
        <path d="M178,43 L188,43 C193.425644,43 197,46.325223 197,51 L197,51 C197,57.040957 192.586968,59.9708029 187,60 L182,60 L182,68 L178,68 L178,43 L178,43 L178,43 Z M187,56 C190.029126,55.9898649 192,54.1351351 192,52 L192,51 C192,48.5304054 189.990291,47 187,47 L182,47 L182,56 L187,56 L187,56 L187,56 Z" id="Shape"></path>
        <polygon id="Shape" points="200 42 204 42 204 68 200 68"></polygon>
        <path d="M207,62 L207,62 C207,58.3117809 210.169468,56.3372399 215,56 C216.465536,56.317515 218.176175,56.5743614 220,57 L220,57 C219.809511,54.0566449 218.169084,52.6645934 215,53 C213.299387,52.6698852 211.469731,53.0603175 210,54 L209,51 C210.863965,49.4787664 213.289281,48.9653048 216,49 C218.543749,49.0018197 220.639851,49.7323999 222,51 C223.39671,52.5954274 224.128432,54.6429176 224,57 L224,68 L220,68 L220,65 C218.293325,67.0761128 216.052907,68.0627131 214,68 C210.128964,68.0067777 207,66.0223639 207,62 L207,62 L207,62 L207,62 Z M220,61 L220,60 C218.584577,59.2374549 217.084245,58.9874848 216,59 C212.692757,59.000482 211,60.1565353 211,62 L211,62 C211,63.9834704 212.661215,65 215,65 C217.75,64.9701021 220,63.3556138 220,61 L220,61 L220,61 L220,61 Z" id="Shape"></path>
        <path d="M228.611796,63 L228.611796,53 L226.611796,53 L226.611796,49 L228.611796,49 L228.611796,44 L233.611796,44 L233.611796,49 L238.611796,49 L238.611796,53 L233.611796,53 L233.611796,62 C233.333761,62.4772749 233.543493,63.1201986 233.611796,64 C234.472225,64.0318758 235.134953,64.2453908 235.611796,64 C236.73537,64.154632 237.667821,63.9391676 238.611796,64 L238.611796,67 C237.308644,67.6780315 235.939151,68.0229572 234.611796,68 C231.324974,67.9589325 229.040737,66.5830138 228.611796,63 L228.611796,63 L228.611796,63 L228.611796,63 Z" id="Shape"></path>
        <path d="M243,53 L241,53 L241,49 L243,49 L243,48 C243.126184,46.3977197 243.651891,44.7257462 245,43 C245.795611,42.427344 247.226107,41.9101883 249,42 C249.797169,41.9981042 250.910927,42.1637487 252,43 L252,46 C251.229845,45.8154801 250.438122,45.663024 250,46 C248.08377,45.6508183 247.277487,46.5327591 247,48 L247,49 L252,49 L252,53 L247,53 L247,68 L243,68 L243,53 L243,53 L243,53 Z" id="Shape"></path>
        <path d="M253.36,58.277036 L253.36,58.2082511 C253.509839,52.962582 257.870686,48.7812387 263.211089,48.7626581 C268.551492,48.7440775 272.942362,52.8949713 273.13,58.1394661 L273.13,58.2082511 C273.125353,60.7750401 272.06846,63.2317339 270.19803,65.0234703 C268.327599,66.8152066 265.801403,67.7908514 263.19,67.7300479 C260.600835,67.7910279 258.096438,66.8214353 256.245431,65.0414161 C254.394424,63.2613968 253.353861,60.8219806 253.36,58.277036 L253.36,58.277036 L253.36,58.277036 L253.36,58.277036 Z M268.88,58.277036 L268.88,58.2082511 C268.9507,56.6770728 268.384201,55.1835584 267.310861,54.0713879 C266.237521,52.9592173 264.749784,52.3241779 263.19,52.3124016 C259.78,52.3124016 257.61,54.945881 257.61,58.1296397 L257.61,58.1984246 C257.536654,59.7235955 258.096803,61.2126419 259.162048,62.3242387 C260.227292,63.4358354 261.706283,64.0746585 263.26,64.0942741 C264.80861,64.110948 266.294369,63.4933114 267.360638,62.3896208 C268.426907,61.2859303 268.977408,59.7958424 268.88,58.277036 L268.88,58.277036 L268.88,58.277036 L268.88,58.277036 Z" id="Shape"></path>
        <path d="M276,49 L280,49 L280,54 C281.5,50.7721441 283.675601,48.8579379 287,49 L287,54 L287,54 C282.963956,53.5282002 280.320702,55.9635516 280,61 L280,68 L276,68 L276,49 L276,49 L276,49 Z" id="Shape"></path>
        <path d="M290,49 L294,49 L294,52 C295.462649,50.2351922 297.582867,49.0187609 300,49 C302.190357,48.8977119 304.349271,50.1861598 305,52 C306.758758,50.2131108 309.08403,48.9808049 312,49 C315.523877,49.0063732 318,51.5768641 318,56 L318,68 L314,68 L314,57 C313.790591,54.4274084 312.433675,52.8771123 310,53 C307.699328,52.8771123 306.104705,54.4974217 306,57 L306,68 L302,68 L302,57 C301.895295,54.4974217 300.508666,52.8771123 298,53 C295.833746,52.8771123 294.209409,54.6374485 294,57 L294,68 L290,68 L290,49 L290,49 L290,49 Z" id="Shape"></path>
        <path d="M153,0 L153,72 L154,72 L154,0" id="Line"></path>
      </g>
    </g>
  </g>
</svg>
